<?xml version="1.0" encoding="utf-8"?>
<!-- Generator: Adobe Illustrator 23.0.1, SVG Export Plug-In . SVG Version: 6.00 Build 0)  -->
<svg version="1.1" id="图层_1" xmlns="http://www.w3.org/2000/svg" xmlns:xlink="http://www.w3.org/1999/xlink" x="0px" y="0px"
	 viewBox="0 0 21.5 14.8" style="enable-background:new 0 0 21.5 14.8;" xml:space="preserve">
<style type="text/css">
	.st0{fill:#15436F;}
</style>
<g id="图层_1_xA0_图像_1_">
	<path class="st0" d="M21.1,10.3c-0.4-0.1-0.7,0.4-1,0.7c-1.2,1.2-2.3,1.9-3.6,2.2c-0.6,0.1-1-0.1-1.4-0.8c-0.7-1.5-1.4-3-2.2-4.5
		c-0.3-0.5-0.2-0.7,0.2-1.1c1.4-1.3,2.8-2.6,4.2-3.9c0.2-0.2,0.4-0.3,0.2-0.7c-0.2-0.2-0.4-0.2-0.6,0c-1.5,1.3-2.9,2.6-4.4,4
		C12.2,6.4,12.2,6.5,12,6c-0.8-1.8-1.7-3.5-2.5-5.3C9.1,0,8.8-0.1,8.2,0.4C7,1.7,5.7,3,4.3,4.1c-1,0.9-2,2-2.8,3.2
		c-0.7,1-1.2,2.2-1.3,3.6c-0.2,1.5,0.3,2.7,1.4,3.2c0.7,0.3,1.3,0.2,2,0.2C5,14.2,6.2,13,7.4,12c1.2-0.9,2.2-2.2,3.4-3
		c0.3-0.2,0.5-0.3,0.8,0.2c0.7,1.4,1.5,2.7,2.1,4.2c0.4,1.1,1,1.2,1.9,1.3c0.3-0.1,0.8-0.2,1.2-0.3c1.4-0.4,2.7-1.5,3.8-2.7
		c0.3-0.3,0.8-0.4,0.8-1.1C21.4,10.6,21.2,10.3,21.1,10.3z M10.6,7.9c-0.2,0.2-0.4,0.5-0.6,0.7c-2,1.7-3.8,4.1-6.4,4.6
		c-1.2,0.2-2.4-1.3-2.1-3c0.2-1,0.5-2,1.1-2.7C3.2,6.6,4,5.9,4.7,5.2c1-0.9,2-1.8,3-2.7C7.9,2.4,8,2.3,8.1,2.2
		c0.2,0,0.3,0.2,0.4,0.4c0.8,1.6,1.5,3.1,2.3,4.7C10.8,7.5,10.8,7.7,10.6,7.9z"/>
</g>
</svg>
