<?xml version="1.0" encoding="utf-8"?>
<!-- Generator: Adobe Illustrator 23.0.1, SVG Export Plug-In . SVG Version: 6.00 Build 0)  -->
<svg version="1.1" id="图层_1" xmlns="http://www.w3.org/2000/svg" xmlns:xlink="http://www.w3.org/1999/xlink" x="0px" y="0px"
	 viewBox="0 0 221.17 299.37" style="enable-background:new 0 0 221.17 299.37;" xml:space="preserve">
<g id="图层_0_xA0_图像_1_">
	<g>
		<path d="M30.35,287.64c0.32,1.97-1.05,3.6-0.26,5.49c1.8-1.93,4.08-0.34,6.18-1.31c4.1-1.88,6.57-6.03,6.28-10.52
			c-0.13-1.97,0.65-3.92-1.63-4.95c-2.43-1.1-4.85-0.87-7.1,0.61c-0.7,0.46-2.38,0.63-0.58,1.9c0.16,0.11,0.13,0.88,0.02,0.92
			c-3.69,1.5-2.43,6.6-5.99,8.02c-1.17-8.14,2.89-13.45,11.26-14.19c1.53-0.14,1.5-1,1.74-1.89c1.41-5.13,4.12-9.36,8.61-12.32
			c1.21-0.8,1.63-1.86,1.6-3.16c-0.11-4.84,1.88-8.98,4.31-12.97c3.56-5.88,7.15-11.74,10.71-17.61c0.77-1.28,1.5-2.5,1.27-4.18
			c-0.78-5.62,1.11-10.6,4.11-15.21c4.81-7.39,11.56-12.7,18.85-17.42c1.02-0.66,2.3-1,3.44-2.97c-8.31,3.05-16.07,3.61-23.7,0.12
			c-8.07-3.69-11.64-10.44-13.1-19.06c1.44,0.73,1.51,1.9,1.87,2.85c4.68,12.3,13.13,17.55,26.02,15.65
			c12.09-1.78,23.03-6.41,32.53-14.26c2.38-1.97,3.41-3.88,2.8-7.31c-2.19-12.29-5.95-23.98-11.9-34.95
			c-0.88-1.62-1.96-3.14-3.57-4.39c1.28,2.37,2.62,4.71,3.83,7.13c1.28,2.57,2.51,5.17,3.63,7.81c1.11,2.62,2.04,5.31,2.16,8.83
			c-8.78-7.19-19.84-9.11-28.31-15.8c-1.43-1.13-2.75-0.81-4.15-0.03c-1.57,0.87-0.79,2.24-0.57,3.34
			c0.71,3.47,0.79,6.96,0.49,10.45c-0.32,3.83-1.75,7.12-5.63,8.57c-3.6,1.35-6.59-0.33-9.29-2.52c-2.08-1.68-3.55-3.87-4.48-6.37
			c-0.86-2.31-1.5-4.52-3.99-5.98c-1.83-1.07-0.78-3.09,0.56-4.33c0.8-0.74,1.89-1.19,2.87-1.74c1.11-0.63,1.65-1.39,0.17-2.08
			c-6.42-2.99-10.82-8.23-15.35-13.51c2.48,15.97,6.78,31.23,16.13,45.13c-12.13-0.37-21.32-5.85-29.01-14.21
			c-9.97-10.84-13.41-18.42-17.79-38.32c-4.75,3.26-9.47,6.44-15.28,7.17c-0.39-1.24,0.37-1.82,0.91-2.45
			c8.54-9.91,12.99-21.53,15.84-34.25C24.44,47.46,43.6,21.52,75.59,7.88c41.33-17.63,91.24-5.44,117.99,34.22
			c7.77,11.52,14.93,22.93,27.59,29.75c-7.65,0.27-14.44-1.54-20.17-7.42c1.06,4.97,2.26,9.52,2.99,14.14
			c2.73,17.48-0.46,33.81-9.88,48.87c-1.26,2.01-2.55,4.01-3.7,6.08c-2.17,3.91-6.06,7.22-4.29,12.66
			c-3.44-2.97-2.72-7.13-3.99-10.88c-1.76,2.45-3.38,4.77-5.07,7.04c-0.85,1.14-0.71,1.76,0.75,2c1.95,0.31,3.62,1.33,4.64,2.91
			c1.13,1.75,2.61,2.22,4.44,2.01c3.6-0.41,4.16,1.9,3.57,4.45c-0.59,2.56,0.2,4.31,1.54,6.41c3.35,5.27,4.62,10.91,2.26,17.12
			c-2.62,6.89-4.77,13.97-9.41,19.89c-0.75,0.96-0.68,1.34,0.16,2.6c4.24,6.29,9.19,12.07,13.06,18.64
			c5.17,8.77,7.06,17.99,5.29,28.02c-0.29,1.64,0.07,3.11,1.08,4.82c1.76,2.99,1.18,6.71-0.01,9.84
			c-9.36,24.55-27.02,37.78-52.51,36c-6.9-0.48-13.63-1.56-20.08-4.12c-1.23-0.49-2-0.1-3.03,0.58c-9.82,6.5-20.58,6.83-31.72,4.67
			c-3.75-0.73-6.21-3.61-9.33-5.37c-1.22-0.68-0.36-2,0.07-3.03c2.4-5.78,1.78-8.63-2.82-12.92c-3.02-2.82-5.81-5.85-8.19-9.24
			c-3.22-4.6-4.54-5.16-9.92-3.2c-5.24,1.91-9.97,1.97-14.09-2.42c-1.27-1.35-2.76-0.91-3.95,0.22c-3.23,3.06-5.38,6.86-7.14,10.9
			c-0.33,0.75-0.48,1.46,0.33,1.97c3.36,2.13,2.11,5.86,2.97,8.83c0.23,0.79-0.29,2.04-0.86,2.77c-1.73,2.22-3.42,4.4-4.6,7.01
			c-0.49,1.07-1.59,2.69-3.21,0.5c-0.46-0.63-1.84,0.24-2.67,0.8c-2.5,1.71-4.04,0.27-5.12-1.76
			C27.39,291.05,27.44,289.01,30.35,287.64z M55.28,247.98c1.73,0.15,2.48,1.47,3.32,2.72c2.39,3.53,5.03,6.85,8.73,9.11
			c1.24,0.76,2.86,1.82,4.11,0.65c1.04-0.97-0.38-2.24-0.8-3.32c-2.88-7.47-4.22-15.15-0.07-22.38c2.11-3.69,1.79-5.68-1.68-7.55
			c-0.29-0.16-0.63-0.2-0.87-0.28c-4.08,7.22-7.81,14.49-12.73,21.06c0.12,1.26-1.07,1.91-1.38,2.96c-0.86,2.95-2.36,6.19,0.07,8.79
			c2.5,2.68,6.06,2.3,10.3,2.42C59.71,257.53,56.3,253.48,55.28,247.98z M152.09,210.9c0.18,0.36,0.37,0.72,0.55,1.08
			c-8.57,5.76-18.2,9.46-27.82,13.44c0.37,0.34,0.51,0.56,0.69,0.61c14.78,3.54,27.64,10.64,38.77,20.93
			c0.96,0.89,1.93,0.88,3.06,0.95c11.04,0.64,21.14-2.9,31.2-6.83c2.79-1.09,3.25-2.44,2.56-5.35
			c-2.98-12.49-10.78-22.42-17.04-33.17c-0.42-0.72-0.96-1.11-1.77-1.17c-5.88-0.41-9.76-3.96-13.22-8.28
			c-3.91-4.88-8.69-8.71-14.71-10.56c-4.71-1.45-8.98-4.57-14.17-4.23c-6.24,0.4-12.41,1.37-18.5,2.8
			c-1.98,0.47-3.99,1.09-6.31,0.34c1.31-2.13,4.09-1.53,5.64-4.19c-2.93,1.18-5.14,2.07-7.91,3.19c0.95-2.6,2.74-3.57,4.17-4.83
			c2.78-2.45,2.8-2.43,2.35-4.94c-3.34,3.9-7.64,6.4-11.91,8.92c0.57,0.95,1.57-0.3,2.01,0.71c-0.24,1.01-1.24,1.04-1.97,1.39
			c-7.12,3.4-13.87,7.43-20.14,12.22c-6.09,4.65-11.7,9.81-15.11,16.87c-5.03,10.42-1.91,15.8,9.53,16.51
			c1.25,0.08,2.5,0.13,3.75,0.13c13.78,0.1,27.02-2.77,39.95-7.32C134.5,217.07,143.3,213.99,152.09,210.9z M152.31,176.91
			c-0.02,0.45-0.05,0.9-0.07,1.35c9.04,1.88,15.91,6.99,21.47,14.09c1.89,2.41,4.35,4.08,7.2,5.2c0.86,0.34,1.6,0.71,2.03-0.61
			c2.4-7.36,6.38-14.07,8.66-21.51c1.45-4.72,0.41-8.81-1.64-12.94c-0.98-1.97-2.01-2.35-3.39-0.39c-1.54,2.19-3.92,2.49-6.31,2.68
			c-8.23,0.62-16.39,1.68-24.42,3.63c-6.98,1.69-13.86,3.71-20.54,6.46c8.23-0.73,16.43-1.26,24.64-1.71
			c4.63-0.26,9.25-0.33,13.73,1.1c0.9,0.29,2.19,0.61,1.84,1.9c-0.27,1.01-1.47,0.72-2.29,0.73
			C166.25,176.93,159.28,176.91,152.31,176.91z M122.16,177.64c2.12-0.25,3.69,0.19,4.08-1.28c0.46-1.77,1.86-1.84,3.06-2.33
			c15.68-6.42,31.78-11.46,48.82-12.07c4.54-0.16,6.63-1.59,7.89-5.52c0.48-1.51,2.27-3.18,1.38-4.41c-1.09-1.52-3.15,0.1-4.81,0.1
			c-0.36,0-0.71,0.24-1.07,0.32c-18.3,4.08-35.45,11.09-51.8,20.18C127.33,173.93,124.77,174.88,122.16,177.64z M53.26,100.26
			c2.06,6.5,4.03,13.02,6.19,19.48c2.26,6.75,2.34,6.72,8.85,4.45c0.71-0.25,1.41-0.53,2.13-0.7c1.95-0.46,1.84-1.21,0.51-2.42
			C64.2,114.91,58.38,107.98,53.26,100.26z M149.54,116.41c0.24-4.87-1.08-8.38-3.45-11.54c-1.72-2.28-3.95-2.78-6.61-1.79
			c-1.28,0.48-2.01,1.01-0.88,2.36C141.75,109.22,145.07,112.84,149.54,116.41z M141.5,119.39c0.21,4.45,0.4,8.56,0.6,13.05
			C149.94,125.43,149.8,123.15,141.5,119.39z M76.93,126.25c-1.14-0.72-1.88-2.55-3.95-1.3c-2.35,1.42-4.74,2.75-7.12,4.12
			c-0.71,0.41-1.87,0.59-1.38,1.79c0.56,1.35,1.61,0.79,2.53,0.41c2.89-1.18,5.77-2.37,8.64-3.58
			C76.2,127.47,76.87,127.32,76.93,126.25z M201.7,243.16c-1.74,0.84-3.24,1.42-4.6,2.24c-1.32,0.79-3.11,0.75-4.21,2.23
			C201.87,249.34,201.87,249.34,201.7,243.16z M179.5,148.98c-3.85-2.81-5.87-2.32-12.31,2.81
			C171.38,150.84,175.22,149.96,179.5,148.98z"/>
	</g>
</g>
</svg>
